<?xml version="1.0" encoding="utf-8"?>
<!-- Generator: Adobe Illustrator 20.1.0, SVG Export Plug-In . SVG Version: 6.00 Build 0)  -->
<svg version="1.1" id="Layer_1" xmlns="http://www.w3.org/2000/svg" xmlns:xlink="http://www.w3.org/1999/xlink" x="0px" y="0px"
	 viewBox="0 0 473.1 473.1" style="enable-background:new 0 0 473.1 473.1;" xml:space="preserve">
<style type="text/css">
	.st0{fill:#FFFFFF;}
</style>
<circle class="st0" cx="236.5" cy="236.5" r="225"/>
<g>
	<polygon points="115.4,215.5 115.4,257.6 146.9,236.5 	"/>
	<polygon points="224,185 224,126.3 125.5,192 169.5,221.4 	"/>
	<polygon points="347.6,192 249.1,126.3 249.1,185 303.6,221.4 	"/>
	<polygon points="125.5,281.1 224,346.8 224,288.1 169.5,251.7 	"/>
	<polygon points="249.1,288.1 249.1,346.8 347.6,281.1 303.6,251.7 	"/>
	<polygon points="236.5,206.8 192.1,236.5 236.5,266.3 281,236.5 	"/>
	<path d="M236.5,0C105.9,0,0,105.9,0,236.5S105.9,473,236.5,473S473,367.1,473,236.5C473.1,105.9,367.2,0,236.5,0z M382.8,281.1
		c0,0.6,0,1.1-0.1,1.6c0,0.2-0.1,0.4-0.1,0.5c-0.1,0.4-0.1,0.7-0.2,1.1c-0.1,0.2-0.1,0.4-0.2,0.6c-0.1,0.3-0.2,0.6-0.3,0.9
		c-0.1,0.2-0.2,0.4-0.3,0.6c-0.1,0.3-0.3,0.6-0.4,0.8c-0.1,0.2-0.2,0.4-0.4,0.6c-0.2,0.3-0.3,0.5-0.5,0.8c-0.1,0.2-0.3,0.4-0.4,0.5
		c-0.2,0.2-0.4,0.5-0.6,0.7s-0.3,0.3-0.5,0.5s-0.5,0.4-0.7,0.6c-0.2,0.1-0.4,0.3-0.6,0.4c-0.1,0-0.1,0.1-0.2,0.2l-133.7,89.1
		c-2.1,1.4-4.5,2.1-7,2.1c-2.4,0-4.9-0.7-7-2.1l-133.7-89c-0.1,0-0.1-0.1-0.2-0.2c-0.2-0.1-0.4-0.3-0.6-0.4
		c-0.2-0.2-0.5-0.4-0.7-0.6s-0.3-0.3-0.5-0.5s-0.4-0.4-0.6-0.7c-0.1-0.2-0.3-0.4-0.4-0.5c-0.2-0.2-0.4-0.5-0.5-0.8
		c-0.1-0.2-0.2-0.4-0.4-0.6c-0.2-0.3-0.3-0.6-0.4-0.8c-0.1-0.2-0.2-0.4-0.3-0.6c-0.1-0.3-0.2-0.6-0.3-0.9c-0.1-0.2-0.1-0.4-0.2-0.6
		c-0.1-0.3-0.2-0.7-0.2-1.1c0-0.2-0.1-0.4-0.1-0.5c-0.1-0.5-0.1-1.1-0.1-1.6V192c0-0.6,0-1.1,0.1-1.6c0-0.2,0.1-0.4,0.1-0.5
		c0.1-0.4,0.1-0.7,0.2-1.1c0.1-0.2,0.1-0.4,0.2-0.6c0.1-0.3,0.2-0.6,0.3-0.9c0.1-0.2,0.2-0.4,0.3-0.6c0.1-0.3,0.3-0.6,0.4-0.8
		s0.2-0.4,0.4-0.6c0.2-0.3,0.3-0.5,0.5-0.8c0.1-0.2,0.3-0.4,0.4-0.5c0.2-0.2,0.4-0.5,0.6-0.7s0.3-0.3,0.5-0.5s0.5-0.4,0.7-0.6
		c0.2-0.1,0.4-0.3,0.6-0.4c0.1,0,0.1-0.1,0.2-0.2l133.7-89.1c4.2-2.8,9.7-2.8,13.9,0l133.7,89.1c0.1,0,0.1,0.1,0.2,0.2
		c0.2,0.1,0.4,0.3,0.6,0.4c0.2,0.2,0.5,0.4,0.7,0.6c0.2,0.2,0.3,0.3,0.5,0.5s0.4,0.4,0.6,0.7c0.2,0.2,0.3,0.4,0.4,0.5
		c0.2,0.2,0.4,0.5,0.5,0.8c0.1,0.2,0.2,0.4,0.4,0.6c0.2,0.3,0.3,0.5,0.4,0.8c0.1,0.2,0.2,0.4,0.3,0.6c0.1,0.3,0.2,0.6,0.3,0.9
		c0.1,0.2,0.1,0.4,0.2,0.6c0.1,0.3,0.2,0.7,0.2,1.1c0,0.2,0.1,0.4,0.1,0.5c0.1,0.5,0.1,1.1,0.1,1.6L382.8,281.1L382.8,281.1z"/>
	<polygon points="357.7,257.6 357.7,215.5 326.2,236.5 	"/>
</g>
</svg>
