<?xml version="1.0" encoding="utf-8"?>
<!-- Generator: Adobe Illustrator 20.1.0, SVG Export Plug-In . SVG Version: 6.00 Build 0)  -->
<svg version="1.1" id="Layer_1" xmlns="http://www.w3.org/2000/svg" xmlns:xlink="http://www.w3.org/1999/xlink" x="0px" y="0px"
	 viewBox="0 0 30 30" style="enable-background:new 0 0 30 30;" xml:space="preserve">
<style type="text/css">
	.st0{fill:#E74D89;}
	.st1{fill:#B2215A;}
</style>
<g>
	<path class="st0" d="M15,1c7.7,0,14,6.3,14,14s-6.3,14-14,14S1,22.7,1,15S7.3,1,15,1z"/>
	<path class="st1" d="M15,30C6.7,30,0,23.3,0,15C0,6.7,6.7,0,15,0s15,6.7,15,15S23.3,30,15,30L15,30z M27.6,17c-0.4-0.1-4-1.2-8-0.6
		c1.7,4.6,2.4,8.3,2.5,9.1C25,23.7,27.1,20.6,27.6,17z M20,26.8c-0.2-1.1-0.9-5-2.7-9.7c0,0-0.1,0-0.1,0c-7.2,2.5-9.8,7.5-10.1,8
		c2.2,1.7,4.9,2.7,7.9,2.7C16.8,27.8,18.5,27.4,20,26.8L20,26.8z M5.5,23.6c0.3-0.5,3.8-6.3,10.4-8.4c0.2-0.1,0.3-0.1,0.5-0.2
		c-0.3-0.7-0.7-1.5-1-2.2C9,14.7,2.8,14.6,2.2,14.6c0,0.1,0,0.3,0,0.4C2.2,18.3,3.4,21.3,5.5,23.6L5.5,23.6z M2.5,12.4
		c0.6,0,5.8,0,11.8-1.6C12.2,7,9.9,3.9,9.6,3.4C6,5.1,3.3,8.4,2.5,12.4z M12,2.6c0.4,0.5,2.7,3.6,4.8,7.5c4.6-1.7,6.5-4.3,6.7-4.6
		c-2.3-2-5.2-3.2-8.5-3.2C14,2.2,13,2.3,12,2.6z M24.9,6.9c-0.3,0.4-2.4,3.1-7.1,5.1c0.3,0.6,0.6,1.2,0.9,1.9
		c0.1,0.2,0.2,0.4,0.3,0.7c4.3-0.5,8.5,0.3,8.9,0.4C27.8,11.9,26.7,9.1,24.9,6.9L24.9,6.9z"/>
</g>
</svg>
