<?xml version="1.0" standalone="no"?>
<!DOCTYPE svg PUBLIC "-//W3C//DTD SVG 20010904//EN"
 "http://www.w3.org/TR/2001/REC-SVG-20010904/DTD/svg10.dtd">
<svg version="1.0" xmlns="http://www.w3.org/2000/svg"
 width="16.000000pt" height="16.000000pt" viewBox="0 0 16.000000 16.000000"
 preserveAspectRatio="xMidYMid meet">
<metadata>
Created by potrace 1.11, written by Peter Selinger 2001-2013
</metadata>
<g transform="translate(0.000000,16.000000) scale(0.002286,-0.002286)"
fill="#000000" stroke="none">
<path d="M1487 5444 c-1 -1 -22 -5 -47 -8 -133 -18 -193 -31 -310 -67 -71 -22
-69 -22 -185 -74 -306 -140 -548 -427 -606 -720 -31 -155 -31 -376 0 -507 5
-21 7 -38 5 -38 -5 0 45 -128 70 -179 56 -109 197 -258 331 -348 142 -95 259
-145 570 -242 55 -18 116 -38 135 -45 19 -8 89 -35 155 -60 171 -66 309 -151
378 -235 102 -125 116 -342 30 -490 -78 -135 -239 -235 -434 -271 -81 -15
-235 -16 -316 -1 -129 24 -301 100 -391 174 -42 34 -124 118 -157 161 l-31 39
-144 -140 c-80 -77 -192 -186 -250 -241 l-105 -101 35 -37 c29 -31 89 -89 144
-140 35 -33 176 -120 258 -159 86 -41 274 -104 358 -120 181 -34 274 -42 445
-39 180 3 197 4 290 18 124 19 315 78 423 131 209 101 378 258 489 455 30 53
95 210 87 210 -2 0 1 12 7 26 5 15 12 43 15 63 3 20 9 52 13 71 8 38 14 126
14 205 1 59 -12 215 -17 224 -2 3 -7 24 -10 46 -38 244 -254 498 -553 650 -40
20 -75 36 -78 36 -2 0 -28 10 -57 23 -29 13 -134 49 -233 81 -567 181 -736
280 -791 465 -29 99 -19 224 27 315 88 176 290 276 559 276 163 0 288 -28 420
-92 66 -33 103 -60 162 -119 l77 -77 138 145 c76 80 154 162 173 182 19 20 66
69 103 109 l68 72 -58 48 c-113 93 -276 189 -378 221 -22 7 -44 16 -50 20 -12
8 -200 55 -260 65 -112 18 -226 26 -358 24 -86 -2 -158 -4 -160 -5z"/>
<path d="M3462 3501 l3 -1856 327 -1 328 -1 2 1426 3 1426 66 -100 c36 -55
133 -203 214 -330 81 -126 169 -262 194 -301 25 -38 51 -78 56 -87 17 -27 215
-335 295 -458 41 -64 80 -123 85 -132 6 -9 176 -274 379 -589 204 -315 405
-627 447 -693 42 -66 84 -129 92 -141 15 -20 21 -21 434 -20 l418 1 0 1855 0
1855 -327 1 c-292 1 -327 -1 -330 -15 -2 -9 -3 -629 -3 -1378 0 -750 -2 -1363
-5 -1363 -7 0 -18 16 -361 542 -48 73 -136 207 -195 298 -60 91 -113 174 -120
185 -6 11 -44 70 -85 132 -41 62 -113 172 -160 245 -48 73 -138 212 -201 308
-63 96 -170 261 -238 365 -68 105 -179 275 -247 378 -67 103 -123 190 -123
193 0 3 -5 10 -10 17 -6 7 -23 30 -39 53 l-29 41 -436 0 -436 0 2 -1856z"/>
</g>
</svg>
