<svg xmlns="http://www.w3.org/2000/svg" viewBox="0 0 391.5 84.9"><switch><path d="M19.9 7.3c.4 1-.4 1.6-.6 2.7-.4 2.6-1.1 11-1.1 11h15.1v6H18.1c-.6 6-.9 12-.9 18.1 0 6.7.2 8.5.3 8.9.7 5.6 4.3 7.5 7.8 7.5 2.8 0 6.4-1.3 10.4-4.2l2.3 5.8c-3.9 2.9-9.3 5.2-14.8 5.2-4.7 0-8.3-1.8-10.5-4.9C10 59.6 10 55 10 50.8c0-7.8.3-15.7 1-23.6H0L.1 21h11L12 8.6l7.9-1.3zM50.6 0H59v.3c0 .5-.4.8-.6 1.1-.4.4-.4.6-.4 1v26.8c3.4-5.2 9.1-9.3 15.4-9.3 5.3 0 10 3 12.3 8.2 1.6 3.7 1.7 7.5 1.7 11.1v28h-7.2V39.4c0-3.3 0-7.2-2.5-10.2-1.7-2-3.9-2.9-6.3-2.9-4.9 0-9.3 4.1-11.1 6.4-1.9 2.6-2.3 4.8-2.3 7.9v26.6h-7.4V0zM111.7 21l-.3 8.9c3-6.6 9.9-10 16.6-10 5.2 0 9.4 2.1 12.4 5l-3.4 7c-.8-.7-1.1-1.5-1.7-2.3-1.3-1.7-3.7-3.5-7.6-3.5-3.3 0-8.8 1.1-13 7.8-3.1 5-3.2 8-3.2 10.8v22.5h-7.3V21h7.5zM189.1 36.3c.5 2.7.6 5.7.3 8.8h-32.8c.5 13.8 9.5 17.2 15.7 17.2 4.6 0 9-1.8 12-5.2l4 3.9c-4 4.8-9.9 7.2-16.5 7.2-12.6 0-22.2-8.2-22.2-23.6 0-16.9 10.2-24.8 21.3-24.8 7.5.1 16.1 4.1 18.2 16.5zm-6.8 3.2c.9-7.5-4.5-14.1-12-14.1-5 0-12 3.2-13.4 14.1h25.4zM239.7 36.3c.5 2.7.6 5.7.3 8.8h-32.8c.5 13.8 9.5 17.2 15.7 17.2 4.6 0 9-1.8 12-5.2l4 3.9c-4 4.8-9.9 7.2-16.5 7.2-12.6 0-22.2-8.2-22.2-23.6 0-16.9 10.2-24.8 21.3-24.8 7.5.1 16.1 4.1 18.2 16.5zm-6.8 3.2c.9-7.5-4.5-14.1-12-14.1-5 0-12 3.2-13.4 14.1h25.4zM270 68.4c-3.3 0-6-2.6-6-5.8 0-3.2 2.7-5.8 6-5.8s6 2.6 6 5.8c0 3.1-2.7 5.8-6 5.8zM333.7 21v43c0 4-.1 7.8-2.1 11.6-3.1 6.1-9.6 9.2-16.2 9.2-5.7 0-10.8-2.4-14.1-6.5L306 72c.6.5.5 1.2.9 1.9.4.6 3.4 4.6 9 4.6 3.9 0 7.6-2.1 9.3-5.8 1.1-2.5 1.2-4.9 1.2-7.4V27h-17.2v-6h24.5zm1.7-14.9c0 2.9-2.3 5.2-5.2 5.2-2.9 0-5.2-2.3-5.2-5.2 0-2.9 2.3-5.2 5.2-5.2 2.8 0 5.2 2.3 5.2 5.2zM386.5 33.5c-.2 0-.5-.2-.5-.8 0-.4.1-.6-.2-1-1.8-2.3-6.2-6.3-12.8-6.3-5.2 0-9.7 2.6-9.7 6.3 0 1.6.8 3.8 4.6 5.6 4.3 2.1 11.8 3.1 17 6.1 5.5 3.1 6.8 7.3 6.8 10.5 0 7-6.6 14.4-19.2 14.4-7 0-14.1-2.3-19.5-7.3l4.2-7.2c.5.2.5.8.4 1 0 .4-.1.7.3 1.1 1.5 1.7 6.5 6.4 14.5 6.4 6.6 0 11.9-3 11.9-7.3 0-1.7-.8-4.1-4.6-5.9-3.4-1.6-8.5-2.8-12.4-4.2C364.8 44 356 41.1 356 33c0-6.9 7-12.9 17.8-12.9 6.8 0 13 2.5 17.2 7.2l-4.5 6.2z"/></switch></svg>